<?xml version="1.0" encoding="iso-8859-1"?>
<!-- Generator: Adobe Illustrator 18.0.0, SVG Export Plug-In . SVG Version: 6.00 Build 0)  -->
<!DOCTYPE svg PUBLIC "-//W3C//DTD SVG 1.1//EN" "http://www.w3.org/Graphics/SVG/1.1/DTD/svg11.dtd">
<svg version="1.1" id="Capa_1" xmlns="http://www.w3.org/2000/svg" xmlns:xlink="http://www.w3.org/1999/xlink" x="0px" y="0px"
	 viewBox="0 0 168.083 168.083" style="enable-background:new 0 0 168.083 168.083;" xml:space="preserve">
<g>
	<path d="M144.386,35.957c-0.366-0.192-0.744-0.341-1.125-0.458l3.293-6.284c1.025-1.957,0.271-4.375-1.686-5.4
		c-1.956-1.024-4.375-0.27-5.4,1.686l-47.316,90.284l32.24-96.698c0.699-2.096-0.434-4.361-2.529-5.06
		c-2.096-0.698-4.361,0.434-5.06,2.529l-32.24,96.7L100.894,12.64c0.354-2.18-1.127-4.235-3.308-4.589
		c-2.18-0.355-4.235,1.127-4.589,3.308L76.667,111.974V10.042c0-2.209-1.791-4-4-4s-4,1.791-4,4V72.62L60.738,5.735
		C60.351,2.464,57.578,0,54.284,0H26.712c-1.857,0-3.625,0.794-4.859,2.183c-1.233,1.389-1.814,3.238-1.595,5.083l18.383,155.083
		c0.388,3.271,3.161,5.735,6.455,5.735h27.571c1.857,0,3.625-0.794,4.859-2.183c1.233-1.389,1.814-3.238,1.595-5.083l-0.284-2.393
		l44.999-85.863c0.313,0.248,0.651,0.473,1.018,0.665c0.963,0.505,1.995,0.744,3.012,0.744c2.34,0,4.601-1.268,5.763-3.484
		l13.498-25.756C148.793,41.551,147.566,37.623,144.386,35.957z M50.87,155.083L34.028,13h14.481l16.842,142.083H50.87z"/>
</g>
<g>
</g>
<g>
</g>
<g>
</g>
<g>
</g>
<g>
</g>
<g>
</g>
<g>
</g>
<g>
</g>
<g>
</g>
<g>
</g>
<g>
</g>
<g>
</g>
<g>
</g>
<g>
</g>
<g>
</g>
</svg>
